<svg id="visual" viewBox="0 0 900 600" width="900" height="600" xmlns="http://www.w3.org/2000/svg" xmlns:xlink="http://www.w3.org/1999/xlink" version="1.1"><rect width="900" height="600" fill="#ffffff"></rect><g><g transform="translate(264 512)"><path d="M32.4 -40.9C41.4 -30.9 48 -20.3 50.6 -8.5C53.2 3.3 51.9 16.3 46.2 27.2C40.6 38.1 30.4 47 18.7 51.2C7 55.3 -6.4 54.8 -17.7 50.1C-29 45.3 -38.2 36.3 -44.8 25.5C-51.5 14.7 -55.6 2.1 -54 -9.9C-52.3 -21.8 -44.7 -33.1 -34.8 -42.9C-24.8 -52.7 -12.4 -61 -0.4 -60.6C11.6 -60.1 23.3 -50.9 32.4 -40.9Z" stroke="#527992" fill="none" stroke-width="13"></path></g><g transform="translate(318 219)"><path d="M21 -25.3C26.8 -20.3 30.7 -13.2 31.3 -6C32 1.1 29.5 8.3 25.6 14.6C21.8 20.9 16.6 26.2 10.4 28.2C4.3 30.2 -2.9 29 -9.9 26.7C-16.9 24.4 -23.7 21 -27 15.5C-30.3 10 -30.2 2.3 -28.9 -5.2C-27.7 -12.6 -25.3 -20 -20.3 -25.1C-15.3 -30.3 -7.6 -33.3 0 -33.3C7.6 -33.3 15.3 -30.3 21 -25.3Z" stroke="#527992" fill="none" stroke-width="13"></path></g><g transform="translate(797 416)"><path d="M23 -28C29.2 -22.3 33 -14.4 34.1 -6.3C35.2 1.9 33.7 10.2 29.3 16.2C25 22.1 17.8 25.7 10.4 28.2C3 30.7 -4.6 32.1 -10.9 29.9C-17.3 27.7 -22.4 21.8 -26.8 15C-31.2 8.3 -35 0.7 -33.9 -6.1C-32.8 -12.9 -26.8 -18.9 -20.4 -24.5C-13.9 -30.1 -7 -35.3 0.7 -36.2C8.5 -37.1 16.9 -33.7 23 -28Z" stroke="#527992" fill="none" stroke-width="13"></path></g></g></svg>